<?xml version="1.0" encoding="UTF-8"?>
<svg width="250px" height="250px" viewBox="0 0 250 250" version="1.1" xmlns="http://www.w3.org/2000/svg" xmlns:xlink="http://www.w3.org/1999/xlink">
    <!-- Generator: Sketch 51.2 (57519) - http://www.bohemiancoding.com/sketch -->
    <title>uizard_icon_yellow_light</title>
    <desc>Created with Sketch.</desc>
    <defs></defs>
    <g id="Logo" stroke="none" stroke-width="1" fill="none" fill-rule="evenodd">
        <g id="uizard_icon_yellow_light" transform="translate(-675.000000, -475.000000)">
            <g transform="translate(675.000000, 475.000000)">
                <path d="M150,250 L100,250 C44.7725,250 0,205.2275 0,150 L0,100 C0,44.7725 44.7725,0 100,0 L150,0 C205.2275,0 250,44.7725 250,100 L250,150 C250,205.2275 205.2275,250 150,250" id="Shape" fill="#FFC125"></path>
                <path d="M168.41,85.3425 C169.4575,85.11 170.4925,85 171.5,85 C180.8875,85 188.035,94.58 183.7025,104.495 C182.5,107.2525 180.255,109.4975 177.495,110.7025 C166.515,115.5 155.9475,106.22 158.345,95.41 C159.445,90.4475 163.45,86.4425 168.41,85.3425 Z M67.5,86.9975 L87.5,86.9975 C88.88,86.9975 90,88.12 90,89.4975 L90,126.3 C90,144.8825 105.475,160 124.5,160 C142.73,160 157.705,146.115 158.92,128.6025 C159.0125,127.29 160.16,126.3 161.475,126.3 L181.4325,126.3 C182.84,126.3 184.005,127.4625 183.945,128.8675 C182.5775,160.0475 156.435,185 124.5,185 C91.6925,185 65,158.665 65,126.3 L65,89.4975 C65,88.12 66.1175,86.9975 67.5,86.9975 Z" fill="#FFFFFF"></path>
            </g>
        </g>
    </g>
</svg>